<svg version="1.1" xmlns="http://www.w3.org/2000/svg" xmlns:xlink="http://www.w3.org/1999/xlink" width="69.92289" height="92" viewBox="0,0,69.92289,92"><defs><radialGradient cx="238.67896" cy="96.26486" r="29.6198" gradientUnits="userSpaceOnUse" id="color-1"><stop offset="0" stop-color="#ffffff"/><stop offset="1" stop-color="#cccccc"/></radialGradient><radialGradient cx="223.60028" cy="144.48353" r="23.0136" gradientUnits="userSpaceOnUse" id="color-2"><stop offset="0" stop-color="#ffffff"/><stop offset="1" stop-color="#e5e5e5"/></radialGradient></defs><g transform="translate(-194.72222,-90.13886)"><g data-paper-data="{&quot;isPaintingLayer&quot;:true}" fill-rule="nonzero" stroke-linejoin="miter" stroke-miterlimit="10" stroke-dasharray="" stroke-dashoffset="0" style="mix-blend-mode: normal"><path d="M241.71706,91.13886c3.931,0 7.494,1.541 10.074,4.03c2.579,2.489 4.176,5.926 4.176,9.72c0,3.794 -1.597,7.231 -4.176,9.72c-2.58,2.489 -6.143,4.03 -10.074,4.03c-3.931,0 -7.494,-1.541 -10.074,-4.03c-2.579,-2.489 -4.176,-5.926 -4.176,-9.72c0,-3.794 1.597,-7.231 4.176,-9.72c2.58,-2.489 6.143,-4.03 10.074,-4.03z" fill="url(#color-1)" stroke="#000000" stroke-width="2" stroke-linecap="butt"/><path d="M241.46706,119.63886v31" fill="none" stroke="#000000" stroke-width="2" stroke-linecap="round"/><path d="M230.46706,180.63886l5.25,-14.25l6.25,-14.75l6.5,14.5l6.5,15" fill="none" stroke="#000000" stroke-width="2" stroke-linecap="round"/><path d="M245.56273,135.61214c-3.95958,-4.79075 -7.01024,-24.19937 1.39815,1.51498c3.97154,3.72657 16.80274,3.52097 16.6834,3.41527c-0.11933,-0.09318 -13.30783,-1.81892 -18.08156,-4.93025z" data-paper-data="{&quot;index&quot;:null}" fill="none" stroke="#000000" stroke-width="2" stroke-linecap="round"/><g><path d="M229.81201,134.14766c0,0 2.52057,-6.76816 5.9738,-8.53777c3.72576,-1.90927 5.72532,-2.08941 5.72532,-2.08941" fill="none" stroke="#000000" stroke-width="2.53123" stroke-linecap="round"/><path d="M230.1507,133.76512l-16.07035,17.79035" fill="none" stroke="#7f7f7f" stroke-width="2.55975" stroke-linecap="round"/><path d="M212.83904,160.09036c-3.69885,4.09473 -7.46603,7.4297 -10.56417,9.50934c-3.09956,2.07972 -5.52934,2.90479 -6.55265,1.98041c-1.02331,-0.92438 -0.4487,-3.42526 1.30623,-6.7196c1.755,-3.29293 4.69106,-7.37866 8.38991,-11.47339c3.69885,-4.09473 7.46603,-7.4297 10.56417,-9.50934c3.09956,-2.07972 5.52934,-2.90479 6.55265,-1.98041c1.02331,0.92438 0.4487,3.42526 -1.30623,6.7196c-1.755,3.29293 -4.69106,7.37866 -8.38991,11.47339z" fill="url(#color-2)" stroke="#000000" stroke-width="2" stroke-linecap="butt"/></g></g></g></svg>